<svg width="116" height="154" viewBox="0 0 116 154" xmlns="http://www.w3.org/2000/svg"><g fill-rule="nonzero" fill="none"><path d="M57.6 0C25.838 0 0 25.838 0 57.6c0 19.584 9.792 36.782 24.686 47.232v40.818c0 4.526 3.703 8.23 8.228 8.23h49.372c4.525 0 8.228-3.704 8.228-8.23v-40.818C105.408 94.382 115.2 77.184 115.2 57.6 115.2 25.838 89.362 0 57.6 0z" fill="#FFF"/><path d="M38.6 134.6c0 3.52 2.88 6.4 6.4 6.4h25.6c3.52 0 6.4-2.88 6.4-6.4v-6.4H38.6v6.4zM57.8 13C33.096 13 13 33.096 13 57.8c0 15.232 7.616 28.608 19.2 36.736V109c0 3.52 2.88 6.4 6.4 6.4H77c3.52 0 6.4-2.88 6.4-6.4V94.536c11.584-8.128 19.2-21.504 19.2-36.736 0-24.704-20.096-44.8-44.8-44.8zm18.24 71.04l-5.44 3.84v14.72H45V87.88l-5.44-3.84C30.92 78.024 25.8 68.232 25.8 57.8c0-17.664 14.336-32 32-32s32 14.336 32 32c0 10.432-5.12 20.224-13.76 26.24z" fill="#393F48"/><path d="M57.686 76.453L55.12 74.12C46.013 65.859 40 60.412 40 53.727 40 48.28 44.28 44 49.727 44c3.077 0 6.03 1.433 7.959 3.696C59.613 45.433 62.566 44 65.644 44c5.447 0 9.727 4.28 9.727 9.727 0 6.685-6.013 12.133-15.12 20.41l-2.565 2.316z" fill="#FF0059"/></g></svg>
